<svg xmlns="http://www.w3.org/2000/svg" viewBox="0 0 60.29 43.45"><defs><style>.cls-1{isolation:isolate;}.cls-2{fill:#e0aa80;}.cls-3{fill:#ce976a;}.cls-4,.cls-6,.cls-8{fill:#757735;}.cls-4,.cls-5,.cls-7{opacity:0.4;mix-blend-mode:multiply;}.cls-7{fill:#e8c86d;}.cls-8{mix-blend-mode:screen;}</style></defs><g class="cls-1"><g id="Layer_1" data-name="Layer 1"><path class="cls-2" d="M59.23,31.52a3.09,3.09,0,0,0-.68-.09c.14-1,.07-2,.17-3.05a25,25,0,0,0-.13-5.47,29.16,29.16,0,0,0-2.8-9.31,27.67,27.67,0,0,0-5.7-7.42,29.13,29.13,0,0,0-3.72-3A20.39,20.39,0,0,0,42,1.23C36.17-.91,29.25.28,23.77,2.72,18,5.29,13.16,9.73,9.07,14.43a32.23,32.23,0,0,0-2.56,3.68l-.65,1a7.31,7.31,0,0,0-1.05.69c-2.58,2-3.64,5.79-4.59,8.77a4.24,4.24,0,0,0,.51,3.72,14.5,14.5,0,0,0,2.4,2,20.2,20.2,0,0,0,4.15,2c.64.24,1.28.49,1.93.72.91.21,1.84.39,2.78.56,2.57.5,5.1,1,7.69,1.41s5,.83,7.57,1.21c4.79.73,9.62,1.1,14.44,1.64,2.33.27,4.62.68,6.93,1.1a23.83,23.83,0,0,0,5.85.51,6.83,6.83,0,0,0,3.2-.44h0c2-.62,2.35-2.71,2.41-4.56,0-1.34.12-2.69.17-4C60.31,33.72,60.09,31.75,59.23,31.52Z"/><path class="cls-3" d="M11.33,12.59A47.24,47.24,0,0,1,19.11,6,27.71,27.71,0,0,1,37.93,1.23C44.75,2,50.68,6.86,54.14,12.6a26.89,26.89,0,0,1,3.53,9.34,31.44,31.44,0,0,1,.46,5.3c0,.85-.13,1.68-.18,2.51,0,.6,0,1.17-.07,1.75-.23,0-.46,0-.68,0-.71-.05-1.41-.05-2.12-.08A19.59,19.59,0,0,1,50,30.32c-3.38-1.09-6.55-2.6-9.81-4a136.45,136.45,0,0,0-18-6.67,51.75,51.75,0,0,0-9.86-1.83,12.66,12.66,0,0,0-6,1A40.74,40.74,0,0,1,11.33,12.59Z"/><path class="cls-3" d="M59.63,36.06a24.11,24.11,0,0,1-.23,3.7A8.61,8.61,0,0,1,59,41.33a.09.09,0,0,1,0,.07c-.29,1.08-1.84,1.44-2.79,1.51a21.63,21.63,0,0,1-3.94-.27,23.44,23.44,0,0,1-6.75-2c-1.11-.35-2.21-.73-3.31-1.11-5.51-1.92-10.91-4.14-16.45-6-2.61-.87-5.26-1.72-7.9-2.49a60.72,60.72,0,0,0-8.76-1.68c-1.84-.25-5-.84-6.52.72-.32.33-.95.93-.82,1.46.26,1.06,1.36,1.74,2.22,2.28a.1.1,0,0,0,.12,0,4.57,4.57,0,0,1-1.34-1.43A1.58,1.58,0,0,1,3.67,30a10.49,10.49,0,0,1,4.25,0c2.64.35,5.3.8,7.89,1.41s5.07,1.48,7.56,2.28,5.05,1.68,7.55,2.6c5.1,1.87,10.16,3.84,15.34,5.51L47,42c-1.52-.27-3-.52-4.56-.71-4.66-.58-9.4-.76-14-1.6-4.93-.9-9.93-1.42-14.83-2.5a44.45,44.45,0,0,1-6.74-1.64,18.7,18.7,0,0,1-2.5-1.23,6.27,6.27,0,0,0-.57-.38,8.51,8.51,0,0,1-1.7-1.28A4.44,4.44,0,0,1,.92,27.81c.83-2.54,1.78-5.7,3.91-7.48a3.39,3.39,0,0,1,1.36-.86l.26-.11c3.11-1.23,6.49-.74,9.7-.22A63.14,63.14,0,0,1,26,21.7C32.17,23.78,38,26.5,44.07,29a44.52,44.52,0,0,0,9.84,3,18.84,18.84,0,0,0,3.46.18c.86-.3,2-.34,2.22.69a5.06,5.06,0,0,1,.08,1.82C59.67,35.19,59.64,35.7,59.63,36.06Z"/><path class="cls-4" d="M40.09,1.53c0-.08-.16.09-.17.14a7.72,7.72,0,0,1-.75,2c-.32.94-.64,1.88-1,2.81-.7,1.88-1.31,3.78-2,5.66s-1.31,3.54-1.92,5.33c-.33,1-.65,1.91-1,2.86a16.77,16.77,0,0,0-.9,2.7c0,.3.31,0,.36-.14a45.31,45.31,0,0,0,1.7-4.83c.73-2.15,1.51-4.28,2.29-6.41s1.4-4.06,2.14-6.07c.29-.8.52-1.62.78-2.42A3.59,3.59,0,0,0,40.09,1.53Z"/><path class="cls-4" d="M39.62,1.14a13.62,13.62,0,0,0-3.35,4A60.39,60.39,0,0,0,33,11c-.92,1.8-1.66,3.66-2.42,5.53-.37.89-.65,1.82-1,2.73-.19.49-.4,1-.59,1.47a5.68,5.68,0,0,1-.18.64c-.25.31,0,.49.24.19a3.83,3.83,0,0,0,.51-1.29c.37-1,.75-1.91,1.1-2.87C31.25,15.7,32,14,32.7,12.36a53.15,53.15,0,0,1,3-5.68,26.16,26.16,0,0,1,3.93-5.41C39.69,1.22,39.74,1.06,39.62,1.14Z"/><path class="cls-4" d="M39.16.82C35,1.78,32,5.43,29.45,8.59a48.33,48.33,0,0,0-4.05,6.05c-.56,1-1.16,2-1.64,3a7.4,7.4,0,0,0-1,2.43c0,.24.32-.11.35-.17A51.11,51.11,0,0,1,29.45,9.12C32,5.85,35,2.42,39.06,1.05,39.13,1,39.28.8,39.16.82Z"/><path class="cls-4" d="M38.47.5l-.67,0a6.14,6.14,0,0,0-1.59.37,17,17,0,0,0-3.05,1.45,23.9,23.9,0,0,0-5.44,4.48,34.41,34.41,0,0,0-4.35,5.83,51.58,51.58,0,0,0-3.13,6.59c-.12.28.21.12.29,0,.42-.77.68-1.62,1-2.42.53-1.17,1.13-2.31,1.76-3.43A33.23,33.23,0,0,1,27.84,7.1a23.56,23.56,0,0,1,5.53-4.51,14.81,14.81,0,0,1,3.3-1.48A7.06,7.06,0,0,0,38.44.68C38.49.65,38.6.45,38.47.5Z"/><path class="cls-4" d="M36.15.4C34.07.35,31.82,1.58,30,2.54a26.78,26.78,0,0,0-5.75,4.22,35,35,0,0,0-7.95,11.89.31.31,0,0,0-.07.16v.05c0,.27.37-.13.41-.2A37.93,37.93,0,0,1,24.11,7.35a26.82,26.82,0,0,1,5.46-4.14A17.89,17.89,0,0,1,36.06.58S36.22.4,36.15.4Z"/><path class="cls-4" d="M33.9,0C32.59.36,31.28.61,30,1.08A23.77,23.77,0,0,0,26.76,2.7a27.16,27.16,0,0,0-5.88,4.41,41.08,41.08,0,0,0-4.64,5.78c-.68,1-1.13,2.06-1.76,3a9.07,9.07,0,0,0-.76,1.36c-.13.3-.49.71-.47,1.05h0v0c0,.05,0,.08.05.08s.38-.26.38-.39A6.05,6.05,0,0,1,14.26,17c.24-.42.47-.86.74-1.27.67-1.07,1.16-2.21,1.91-3.24a41.68,41.68,0,0,1,4.36-5.29A26.89,26.89,0,0,1,27,2.93a28.74,28.74,0,0,1,2.87-1.47c1.29-.53,2.65-.8,4-1.27C33.88.18,34,0,33.9,0Z"/><path class="cls-4" d="M26.37,2a27.9,27.9,0,0,0-9.66,6.44,29.59,29.59,0,0,0-6.77,9.75c-.15.35.27.07.36-.08a36,36,0,0,1,6.53-9.37,30.87,30.87,0,0,1,9.46-6.53C26.35,2.19,26.47,2,26.37,2Z"/><path class="cls-4" d="M41.07,1.25H41c-.06,0-.25.23-.13.25.34.07-2.73,10.73-3,11.62-.69,2.09-1.25,4.23-2,6.29-.38,1-.81,2-1.2,3A7.14,7.14,0,0,0,34,24.21v.06c0,.29.5-.16.5-.36a3,3,0,0,1,.25-.65c.18-.53.41-1.06.61-1.59.35-.92.79-1.82,1.1-2.76.67-2,1.26-4,1.92-6s1.25-4.3,1.85-6.46a18,18,0,0,0,1-5.13S41.11,1.24,41.07,1.25Z"/><path class="cls-4" d="M41.87,1.42c0-.07-.16.08-.16.13.38,4.4-.74,9-1.75,13.24-.87,3.62-2,7.17-3.07,10.72-.1.32.38,0,.43-.21,1.14-3.69,2.26-7.38,3.15-11.14.56-2.37.9-4.78,1.37-7.17A14.5,14.5,0,0,0,41.87,1.42Z"/><path class="cls-4" d="M43.64,3.92a3.62,3.62,0,0,0-.64-2c-.06-.06-.21.13-.18.19a7.31,7.31,0,0,1,.46,2.52,15.76,15.76,0,0,1-.11,3.29q-.36,3.47-.83,6.92A46.11,46.11,0,0,1,41.23,21c-.46,1.69-.68,3.46-1.19,5.13a.49.49,0,0,0-.16.3v0s0,.09.07.1h0c.19,0,.34-.24.39-.38a47.46,47.46,0,0,0,1.29-5.42c.44-2.18.86-4.36,1.15-6.58s.54-4.4.77-6.61A15.45,15.45,0,0,0,43.64,3.92Z"/><path class="cls-4" d="M44.73,2.62c0-.06-.2.13-.17.19a17,17,0,0,1,.9,6.65c0,2.24-.07,4.5-.22,6.74A67,67,0,0,1,44.47,23c-.17,1-.45,2-.66,3.06-.11.49-.17,1-.3,1.48,0,.2-.36.81,0,.53-.21.19-.2.57.11.3s.33-1,.44-1.37c.29-1.13.51-2.3.74-3.44a56.32,56.32,0,0,0,.86-6.84c.17-2.51.27-5,.26-7.55C45.88,7.19,46,4.26,44.73,2.62Z"/><path class="cls-4" d="M46.12,3.37c0-.08-.18.09-.16.16a25,25,0,0,1,1.3,6c.16,2.34.21,4.69.17,7A47.89,47.89,0,0,1,47,23.47a49.69,49.69,0,0,0-.94,5.78c0,.25.42-.14.43-.31.1-2.07.75-4.1,1-6.15a67.28,67.28,0,0,0,.38-6.95C47.93,11.6,47.85,7.3,46.12,3.37Z"/><path class="cls-4" d="M49.6,16.28a69.09,69.09,0,0,0-.6-7,26.9,26.9,0,0,0-1-3.32A3.72,3.72,0,0,0,47,4c-.08-.06-.26.17-.19.24a5.39,5.39,0,0,1,.8,2.05,20.22,20.22,0,0,1,.87,2.94,64.85,64.85,0,0,1,.64,7.37c.14,2.32,0,4.6,0,6.92a42.31,42.31,0,0,1-.51,6.55c-.1.13-.16.28-.08.33l0,0c.05.22.42-.22.43-.31A63.36,63.36,0,0,0,49.6,16.28Z"/><path class="cls-4" d="M51.43,24.55a60.53,60.53,0,0,0-.1-7c-.36-4.33-.42-9.3-3.26-12.85,0-.06-.19.12-.16.17A18.39,18.39,0,0,1,50.14,11c.33,2.28.58,4.53.78,6.82s.13,4.4.11,6.58a50.16,50.16,0,0,1-.2,6.49c0,.3.33,0,.37-.18A13.19,13.19,0,0,0,51.33,28C51.36,26.85,51.39,25.7,51.43,24.55Z"/><path class="cls-4" d="M53.24,19.18A59.49,59.49,0,0,0,52.14,12a24.84,24.84,0,0,0-.89-3.36,12.06,12.06,0,0,0-1.67-2.57c0-.07-.18.09-.15.16.38.84,1,1.52,1.36,2.38a17.39,17.39,0,0,1,.8,2.93,63.12,63.12,0,0,1,1.2,7.49c.22,2.23.36,4.51.36,6.76,0,1-.11,2-.11,3q0,.75-.06,1.5s0,.58,0,.88c-.11.11-.19.29-.12.36l.06.06c.1.1.3-.14.33-.21a3.13,3.13,0,0,0,.17-1.4c0-1.13.12-2.25.16-3.38A62.64,62.64,0,0,0,53.24,19.18Z"/><path class="cls-4" d="M55.35,19.9c-.27-2-.72-3.9-1.1-5.86A17.09,17.09,0,0,0,51.89,8.5c0-.09-.23.11-.19.19A26.94,26.94,0,0,1,53.8,14c.46,2,.86,4.09,1.14,6.17a43.16,43.16,0,0,1,.55,6.21c0,1.84-.07,3.69-.05,5.52,0,.25.41-.15.42-.3A55.48,55.48,0,0,0,55.35,19.9Z"/><path class="cls-4" d="M57.84,28.42a45.18,45.18,0,0,0-.28-5.2c-.16-1.49-.24-3-.49-4.46-.31-1.78-1-3.38-1.5-5.11,0-.08-.19.09-.17.16.29,1.53.85,3,1.14,4.5a38.77,38.77,0,0,1,.55,5.26c.07,1.48.21,2.95.27,4.43a13.64,13.64,0,0,1-.19,3.72c-.09.33.38,0,.43-.22A11.73,11.73,0,0,0,57.84,28.42Z"/><path class="cls-4" d="M9.25,18.19c-3,.24-4.83,2.94-5.93,5.53a22.79,22.79,0,0,0-1.4,4.38c-.12.58-.2,2.58.86,2.51h.05a.13.13,0,0,0,.07-.06h0l0,0,0,0H3s0-.08,0-.1h0c-.51-.06-.69-1.09-.69-1.46a6.44,6.44,0,0,1,.38-2.09c.34-1.08.7-2.13,1.1-3.19A12.42,12.42,0,0,1,5.8,20.31a4.34,4.34,0,0,1,2-1.39,13.26,13.26,0,0,0,1.37-.38C9.2,18.5,9.45,18.17,9.25,18.19Z"/><path class="cls-4" d="M12.68,18c-2,.42-3.08,2.59-3.9,4.26A30.68,30.68,0,0,0,7.21,26a8.28,8.28,0,0,0-.73,3.61c0,.19.49-.23.46-.44a7.85,7.85,0,0,1,.61-3,21,21,0,0,1,1.21-3.08,23.84,23.84,0,0,1,1.48-2.78,6.34,6.34,0,0,1,1.46-1.68,9.31,9.31,0,0,1,.93-.5S12.79,18,12.68,18Z"/><path class="cls-4" d="M15.81,18.42c-1.66.23-2.51,3.23-3,4.48s-.81,2.43-1.2,3.64c-.2.62-.36,1.26-.5,1.9s-.07,1.22-.24,1.77c-.1.33.37,0,.42-.15a8.44,8.44,0,0,0,.34-1.87,19.88,19.88,0,0,1,.84-3c.34-1.07.69-2.13,1.09-3.18s1-2.83,2.14-3.41C15.78,18.62,15.94,18.4,15.81,18.42Z"/><path class="cls-4" d="M19.42,19.22a2.12,2.12,0,0,0-.82,1c-.59,1.13-1.1,2.33-1.6,3.51a29.25,29.25,0,0,0-2,7c-.05.33.36-.05.4-.2.49-1.95,1-3.9,1.6-5.8.31-.9.7-1.77,1.08-2.64a9.7,9.7,0,0,1,1.34-2.74S19.54,19.14,19.42,19.22Z"/><path class="cls-4" d="M23.31,20.06l-.06,0c-.1-.08-.3.18-.23.28s-.84,1.85-.92,2.08c-.43,1.14-.75,2.31-1.17,3.45a25,25,0,0,0-1.63,5.86c0,.29.48-.15.51-.32a36.89,36.89,0,0,1,1.58-5.64c.64-1.85,1.19-3.73,1.92-5.54C23.32,20.15,23.35,20.09,23.31,20.06Z"/><path class="cls-4" d="M27.19,21.65c0-.08-.09,0-.11,0a4.56,4.56,0,0,0-.71,1.47c-.49,1.11-.95,2.23-1.35,3.38-.73,2-1.89,4.26-2,6.46h0c0,.22.48-.09.5-.37.17-2.12,1.26-4.2,1.95-6.19.34-1,.69-2,1.11-3,.19-.45.3-.93.51-1.37.08-.17.1-.25.09-.29a.09.09,0,0,0,0-.06Z"/><path class="cls-4" d="M30.35,22.78c-.24.73-.7,1.42-1,2.16a34.41,34.41,0,0,1-1.28,3.23A23.19,23.19,0,0,0,26,34.25c0,.1,0,.18.12.16h.06c.16,0,.54-.54.3-.57a20.91,20.91,0,0,0,.79-2.52,33.41,33.41,0,0,1,1.49-3.61c.37-.83.69-1.73,1-2.58a19,19,0,0,0,.87-2.46C30.59,22.5,30.37,22.71,30.35,22.78Z"/><g class="cls-5"><path class="cls-6" d="M28.61,34.69Z"/><path class="cls-6" d="M32.87,24.23a19.14,19.14,0,0,1-1.38,3.23c-.51,1.07-.9,2.19-1.34,3.29s-.81,1.94-1.19,2.92a2.47,2.47,0,0,0-.2.69.52.52,0,0,1-.15.33l.22-.16c-.12.08-.38.61-.06.46a.77.77,0,0,0,.41-.63A11.08,11.08,0,0,1,30.41,31c.52-1.21.93-2.46,1.47-3.66a11.08,11.08,0,0,0,1.19-3.27C33.09,24,32.88,24.17,32.87,24.23Z"/></g><path class="cls-4" d="M35.83,24.93c-.8,2-1.87,4-2.7,6-.35.86-.68,1.74-1,2.62a22.74,22.74,0,0,1-.74,2.51c-.09.2.1.2.21.09a3.14,3.14,0,0,0,.54-1.42c.36-1.19.8-2.36,1.25-3.53.8-2.12,2-4.15,2.63-6.35C36.08,24.69,35.86,24.86,35.83,24.93Z"/><path class="cls-4" d="M38.12,25.85a31.38,31.38,0,0,1-2.21,6.2c-.39,1-.76,1.92-1.11,2.89-.14.39-.28.8-.44,1.19a5.66,5.66,0,0,1-.22.69c-.13.15-.15.53.11.31a3.06,3.06,0,0,0,.65-1.34c.47-1.14.84-2.32,1.29-3.46s1-2.48,1.46-3.73a8.46,8.46,0,0,0,.67-2.87C38.32,25.6,38.13,25.79,38.12,25.85Z"/><path class="cls-4" d="M40.52,27.14a43.56,43.56,0,0,1-2.06,5.91c-.38,1-.78,2.05-1.23,3.05-.18.38-.3.76-.45,1.15s-.48.51,0,.25c-.16.09-.46.67-.12.51s.41-.58.55-.86c.54-1.08,1-2.28,1.4-3.41.5-1.31.95-2.64,1.45-4A7.67,7.67,0,0,0,40.73,27C40.73,26.88,40.53,27.08,40.52,27.14Z"/><path class="cls-4" d="M42.75,27.94c-.07,0-.19.13-.13.19.3.31-.11,1.45-.2,1.84a24.58,24.58,0,0,1-1.2,3.44c-.45,1.05-.86,2.11-1.31,3.15A10.34,10.34,0,0,0,39,38.81c-.06.33.37-.05.41-.21C39.66,37.68,44.12,28.26,42.75,27.94Z"/><path class="cls-4" d="M45.3,28.72c0-.09-.21.11-.2.19.4,1.9-.63,4-1.15,5.76-.29,1-.52,2-.79,3A9.74,9.74,0,0,1,42.43,40c-.17.27.09.29.25.1a4.54,4.54,0,0,0,.57-1.62c.34-1.24.59-2.53,1-3.74C44.85,33,45.86,30.61,45.3,28.72Z"/><path class="cls-4" d="M47.55,29.35c-.08-.08-.28.17-.23.26.46.81.1,2.09-.07,3a28.15,28.15,0,0,1-.69,2.85c-.26.89-.54,1.76-.77,2.66a9.18,9.18,0,0,1-.74,2.35.59.59,0,0,0-.09.18v.06c0,.29.38-.09.42-.15a7.45,7.45,0,0,0,.69-1.92c.35-1.13.62-2.29,1-3.42a16.84,16.84,0,0,0,.74-3.29C47.85,31.08,48.18,30,47.55,29.35Z"/><path class="cls-4" d="M50.11,30.67c0-.09-.21.11-.21.18.2,1.86-.54,3.8-1.09,5.55-.29.92-.58,1.84-.85,2.76a13.77,13.77,0,0,1-.67,2.6c-.19.35.17.27.3,0a8.23,8.23,0,0,0,.58-2.11c.27-1,.59-2,.9-3.07C49.61,34.88,50.66,32.53,50.11,30.67Z"/><path class="cls-4" d="M52.06,31c0-.09-.21.11-.19.18.62,2-.25,3.82-.87,5.75a25.77,25.77,0,0,0-1.26,5.27c0,.23.4-.12.42-.26a32.81,32.81,0,0,1,1.6-6.33C52.32,34,52.74,32.5,52.06,31Z"/><path class="cls-4" d="M54.63,31.48h0c0-.12,0-.1-.11-.05s-.2.17-.14.25c.62.77-.06,2.42-.23,3.28s-.45,1.91-.67,2.86a21.32,21.32,0,0,0-.85,5.24c0,.29.44-.18.45-.33.28-2.3.77-4.55,1.23-6.82C54.5,35,55.52,32.31,54.63,31.48Z"/><path class="cls-4" d="M56.41,31.61c-.07-.05-.22.14-.19.21.43.85,0,2-.16,2.89l-.6,3a32.1,32.1,0,0,0-.64,5.07c0,.27.43-.15.44-.32a55.3,55.3,0,0,1,.88-6.27c.2-1,.38-2,.56-3A1.7,1.7,0,0,0,56.41,31.61Z"/><path class="cls-4" d="M58.31,31.61c-.05-.07-.22.14-.19.21a4.64,4.64,0,0,1-.08,3c-.22,1-.44,1.89-.6,2.85-.26,1.62-.3,3.21-.44,4.82a.43.43,0,0,0-.07.17.18.18,0,0,0,.08.15c.17.17.43-.32.45-.43a19.17,19.17,0,0,0,.11-2.27,20.21,20.21,0,0,1,.51-3.78C58.34,35,59.26,32.84,58.31,31.61Z"/><path class="cls-7" d="M57.67,21.94a26.89,26.89,0,0,0-3.53-9.34A25,25,0,0,0,43.71,2.91,10.52,10.52,0,0,1,46.35,7c1.47,4.43.68,8.9-.22,13.36a12,12,0,0,1-1,3.41,2.12,2.12,0,0,1-2.63,1.11c-3.62-.9-7.13-2.26-10.67-3.43a87.74,87.74,0,0,0-11.15-3.11,44.9,44.9,0,0,0-6-.77,10.89,10.89,0,0,0-2.61.24h.24a51.75,51.75,0,0,1,9.86,1.83,136.45,136.45,0,0,1,18,6.67c3.26,1.37,6.43,2.88,9.81,4a19.59,19.59,0,0,0,5.12,1.1c.71,0,1.41,0,2.12.08.22,0,.45,0,.68,0,0-.58,0-1.15.07-1.75,0-.83.18-1.66.18-2.51A31.44,31.44,0,0,0,57.67,21.94Z"/><path class="cls-7" d="M59.59,32.84c-.27-1-1.36-1-2.22-.69A18.84,18.84,0,0,1,53.91,32a44.51,44.51,0,0,1-9.78-3,9.65,9.65,0,0,1-1.53,3.14,5.62,5.62,0,0,1-2.29,2.14c-2.18.94-4.63-.36-6.66-1.12a81.65,81.65,0,0,0-10.89-3.49Q19.9,29.07,17,28.53c-1.76-.34-3.52-.73-5.29-1a24,24,0,0,0-5.35-.33c-1.43.11-3.31.29-4.39,1.35a3.72,3.72,0,0,0-1.1,2.27,5,5,0,0,0,1.2,1.84,8.51,8.51,0,0,0,1.7,1.28,6.27,6.27,0,0,1,.57.38,18.7,18.7,0,0,0,2.5,1.23,44.45,44.45,0,0,0,6.74,1.64c4.9,1.08,9.9,1.6,14.83,2.5,4.61.84,9.35,1,14,1.6,1.53.19,3,.44,4.56.71l-.73-.22C41.08,40.1,36,38.13,30.92,36.26c-2.5-.92-5-1.79-7.55-2.6s-5-1.68-7.56-2.28S10.56,30.32,7.92,30a10.49,10.49,0,0,0-4.25,0,1.58,1.58,0,0,0-.88,2.42,4.57,4.57,0,0,0,1.34,1.43.1.1,0,0,1-.12,0c-.86-.54-2-1.22-2.22-2.28-.13-.53.5-1.13.82-1.46,1.48-1.56,4.68-1,6.52-.72a60.72,60.72,0,0,1,8.76,1.68c2.64.77,5.29,1.62,7.9,2.49,5.54,1.84,10.94,4.06,16.45,6,1.1.38,2.2.76,3.31,1.11a23.44,23.44,0,0,0,6.75,2,21.63,21.63,0,0,0,3.94.27c.95-.07,2.5-.43,2.79-1.51a.09.09,0,0,0,0-.07,8.61,8.61,0,0,0,.37-1.57,24.11,24.11,0,0,0,.23-3.7c0-.36,0-.87,0-1.4A5.06,5.06,0,0,0,59.59,32.84Z"/><path class="cls-8" d="M12.28,15.09C15.28,9.7,21,6,26.63,3.86A32.45,32.45,0,0,1,41.44,2a17.32,17.32,0,0,0-3.51-.78A27.71,27.71,0,0,0,19.11,6a47.24,47.24,0,0,0-7.78,6.61,40.74,40.74,0,0,0-5,6.23,12.15,12.15,0,0,1,4.83-1A13,13,0,0,1,12.28,15.09Z"/><path class="cls-8" d="M.77,30c.36-3,2.25-5.7,4.29-7.79a10.53,10.53,0,0,1,7.08-2.84,33.13,33.13,0,0,1,6.89.37c-1-.22-1.92-.41-2.88-.57-3.21-.52-6.59-1-9.7.22l-.26.11a3.39,3.39,0,0,0-1.36.86C2.7,22.11,1.75,25.27.92,27.81a4.8,4.8,0,0,0-.17,2.55C.75,30.23.76,30.1.77,30Z"/></g></g></svg>