<svg xmlns="http://www.w3.org/2000/svg" viewBox="0 0 297.8 214.65"><defs><style>.cls-1{isolation:isolate;}.cls-2{fill:#56271e;}.cls-3{fill:#fcb006;}.cls-4,.cls-6,.cls-7{fill:#757735;}.cls-4,.cls-5{opacity:0.4;mix-blend-mode:multiply;}.cls-7{mix-blend-mode:screen;}</style></defs><g class="cls-1"><g id="Layer_1" data-name="Layer 1"><path class="cls-2" d="M304.81,170a14.79,14.79,0,0,0-3.38-.45c.72-5,.37-10,.83-15.07a122.2,122.2,0,0,0-.63-27,143.35,143.35,0,0,0-13.84-46c-7-14.09-17-25.79-28.17-36.66a141,141,0,0,0-18.35-15c-6.44-4.42-14.54-6.78-21.81-9.47-28.56-10.58-62.75-4.7-89.84,7.35C101.12,40.42,77.23,62.36,57,85.62c-4.8,5.52-8.63,12-12.62,18.17-.9,1.39-2.06,3.07-3.21,4.88a34.92,34.92,0,0,0-5.2,3.39c-12.74,10.09-18,28.6-22.7,43.35a21.2,21.2,0,0,0,2.53,18.35,71.6,71.6,0,0,0,11.87,10.06c6.39,4.28,13.36,6.9,20.5,9.64,3.16,1.21,6.34,2.42,9.54,3.58,4.51,1.05,9.1,1.9,13.73,2.79,12.7,2.42,25.18,5.13,38,6.93,12.5,1.76,24.91,4.11,37.39,6,23.67,3.6,47.52,5.39,71.32,8.09,11.52,1.31,22.82,3.36,34.22,5.43,9.28,1.69,19.32,3.22,28.9,2.49,4.7.38,11.21.07,15.82-2.13l.16,0c9.66-3,11.61-13.35,11.88-22.51.19-6.6.6-13.27.88-19.9C310.13,180.9,309.06,171.16,304.81,170Z" transform="translate(-12.21 -14.31)"/><path class="cls-3" d="M68.19,76.49A236.15,236.15,0,0,1,106.6,43.86a136.75,136.75,0,0,1,93-23.47c33.69,3.83,63,27.79,80.08,56.17a132.23,132.23,0,0,1,17.43,46.14,155.5,155.5,0,0,1,2.26,26.19c0,4.16-.64,8.26-.88,12.41-.17,2.92-.13,5.77-.32,8.63-1.14,0-2.27,0-3.39,0-3.48-.24-6.94-.25-10.43-.35-8.36-.25-17.43-2.92-25.34-5.46-16.69-5.37-32.33-12.84-48.46-19.63-29.11-12.26-58.28-24.81-88.9-32.95-15.82-4.2-32.33-7.93-48.7-9-9.51-.63-20.47.59-29.52,4.76C50.36,96.05,59.44,85.8,68.19,76.49Z" transform="translate(-12.21 -14.31)"/><path class="cls-3" d="M306.75,192.43c-.23,6.11.09,12.26-1.12,18.31a43.64,43.64,0,0,1-1.83,7.75.55.55,0,0,1,0,.34c-1.43,5.33-9.1,7.1-13.79,7.44-6.55.46-13-.59-19.48-1.31-11.6-1.31-22.67-5-33.34-9.63-5.47-1.75-10.9-3.61-16.34-5.51-27.21-9.49-53.89-20.43-81.25-29.52-12.92-4.29-26-8.51-39.06-12.32-14.09-4.11-28.75-6.28-43.26-8.27-9.08-1.25-24.87-4.18-32.22,3.52-1.58,1.66-4.65,4.59-4,7.25,1.26,5.19,6.72,8.59,11,11.26.15.1.37,0,.57-.17A22,22,0,0,1,26,174.5c-2.57-4.26-1.44-10.16,4.35-11.95,6.53-2,14.3-1,21-.17a390.2,390.2,0,0,1,39,6.93c12.55,3,25.07,7.33,37.36,11.26,12.53,4,24.94,8.34,37.29,12.86,25.21,9.22,50.2,19,75.75,27.22,1.2.39,2.4.75,3.61,1.1-7.46-1.33-14.94-2.58-22.49-3.52-23-2.85-46.44-3.73-69.24-7.9-24.35-4.46-49-7-73.21-12.37-11.25-2.49-22.54-3.82-33.32-8.1a90.31,90.31,0,0,1-12.33-6.05c-1-.68-1.89-1.34-2.82-1.89a41.23,41.23,0,0,1-8.4-6.33c-6.82-6.77-8.69-14.79-5.73-23.9,4.07-12.56,8.77-28.14,19.32-36.95a16.46,16.46,0,0,1,6.69-4.24c.42-.19.85-.38,1.29-.55,15.35-6.06,32.08-3.68,47.91-1.08,16.47,2.7,32.75,7.32,48.55,12.62,30.58,10.28,59.59,23.74,89.38,36,15.67,6.44,31.8,12.07,48.59,14.75a98.45,98.45,0,0,0,17.08.89c4.25-1.52,9.68-1.68,11,3.38a24.64,24.64,0,0,1,.36,9C307,188.16,306.82,190.67,306.75,192.43Z" transform="translate(-12.21 -14.31)"/><path class="cls-4" d="M210.24,21.87c-.08-.39-.81.44-.82.69-.06,3.07-2.69,7.11-3.7,10-1.61,4.63-3.18,9.28-4.88,13.88-3.41,9.27-6.47,18.66-9.88,27.94-3.23,8.76-6.46,17.49-9.48,26.32l-4.82,14.16c-1.43,4.22-3.83,8.92-4.47,13.29-.23,1.53,1.55-.13,1.8-.66,3.56-7.55,5.71-15.95,8.39-23.86C186,93,189.85,82.5,193.72,72c3.66-10,6.89-20.05,10.54-30,1.44-3.93,2.59-8,3.89-12C208.91,27.68,210.79,24.42,210.24,21.87Z" transform="translate(-12.21 -14.31)"/><path class="cls-4" d="M207.91,20c-6.9,4.5-12.1,13.11-16.52,19.87A303.78,303.78,0,0,0,175,68.8c-4.51,8.88-8.19,18.08-11.94,27.29-1.81,4.44-3.21,9-4.91,13.52-.92,2.44-2,4.83-2.87,7.28a29.81,29.81,0,0,1-.91,3.14c-1.21,1.54-.08,2.42,1.18,1,1.53-1.77,1.72-4.24,2.55-6.4,1.8-4.73,3.66-9.43,5.39-14.19,3.11-8.5,6.63-16.76,10.29-25a262.56,262.56,0,0,1,14.89-28c5.5-9.25,11.59-19.19,19.38-26.73C208.27,20.35,208.49,19.57,207.91,20Z" transform="translate(-12.21 -14.31)"/><path class="cls-4" d="M205.67,18.38c-20.42,4.71-35.28,22.75-48,38.36-7.6,9.35-14,19.51-20,29.91-2.8,4.85-5.75,9.71-8.12,14.79-1.66,3.58-4.65,8-4.86,12,0,1.15,1.61-.55,1.75-.87,8.35-18.75,18.53-37,31.2-53.22s27.5-33.12,47.51-39.88C205.51,19.39,206.26,18.24,205.67,18.38Z" transform="translate(-12.21 -14.31)"/><path class="cls-4" d="M202.23,16.81s-3.21-.18-3.3-.18a31.38,31.38,0,0,0-7.87,1.83A86.16,86.16,0,0,0,176,25.64c-10.19,5.81-18.88,13.61-26.88,22.11a169,169,0,0,0-21.45,28.79C121.39,87,116.94,98,112.18,109.1c-.6,1.39,1,.61,1.43-.09,2.11-3.78,3.4-8,5.17-12,2.59-5.77,5.59-11.41,8.67-16.93a164.34,164.34,0,0,1,22.29-30.74,115.93,115.93,0,0,1,27.32-22.25c5-2.9,10.67-5.82,16.27-7.31,2.22-.59,7.06-.84,8.78-2.13C202.33,17.53,202.88,16.52,202.23,16.81Z" transform="translate(-12.21 -14.31)"/><path class="cls-4" d="M190.78,16.31c-10.26-.26-21.37,5.82-30.19,10.54a134.7,134.7,0,0,0-28.41,20.83c-17.34,16.17-29.92,37.09-39.25,58.74a1.56,1.56,0,0,0-.35.79v.28c0,1.35,1.85-.63,2-1,9.55-20.52,20.54-39.8,36.73-55.85a133.46,133.46,0,0,1,27-20.5c9.52-5.54,21-11.69,32.06-13C190.59,17.13,191.12,16.31,190.78,16.31Z" transform="translate(-12.21 -14.31)"/><path class="cls-4" d="M179.69,14.33c-6.5,1.75-13,3-19.32,5.33-5.61,2-10.73,5.15-16,8a132.21,132.21,0,0,0-29,21.83C106.6,57.94,99.47,68.05,92.44,78c-3.38,4.75-5.6,10.2-8.71,15.1A49.44,49.44,0,0,0,80,99.76c-.63,1.51-2.37,3.54-2.27,5.21v.13c0,.27.09.39.23.41.56.21,1.88-1.3,1.88-2,.09-1,2.58-5,2.83-5.45,1.2-2.11,2.36-4.24,3.66-6.3,3.33-5.27,5.74-10.92,9.47-16,6.77-9.16,13.3-18.22,21.53-26.18a131.66,131.66,0,0,1,28.27-20.85,141.15,141.15,0,0,1,14.16-7.28c6.37-2.64,13.09-4,19.55-6.25C179.56,15.18,180.17,14.19,179.69,14.33Z" transform="translate(-12.21 -14.31)"/><path class="cls-4" d="M142.46,24.19C124.33,30.66,108.53,42.79,94.77,56,80.88,69.32,68.68,86.33,61.29,104.15c-.72,1.75,1.37.38,1.78-.4,8.82-17,18.54-32.7,32.27-46.25,13.36-13.19,29.4-25,46.76-32.26C142.39,25.12,143,24,142.46,24.19Z" transform="translate(-12.21 -14.31)"/><path class="cls-4" d="M215.1,20.48l-.29,0c-.33.06-1.24,1.15-.67,1.26,1.68.35-13.5,53-14.95,57.41-3.41,10.33-6.2,20.89-10,31.08-1.87,5-4,9.88-5.93,14.86-1,2.63-3.16,6-3.31,8.77a.75.75,0,0,0,0,.2v.11c0,1.44,2.47-.79,2.47-1.8s1-2.34,1.27-3.19c.89-2.65,2-5.24,3-7.85,1.72-4.57,3.9-9,5.45-13.62,3.31-9.87,6.22-19.86,9.5-29.74,3.49-10.53,6.14-21.26,9.11-31.94,2.31-8.29,4.88-16.66,4.73-25.36A.23.23,0,0,0,215.1,20.48Z" transform="translate(-12.21 -14.31)"/><path class="cls-4" d="M219.06,21.33c-.07-.36-.81.38-.79.66,1.84,21.71-3.68,44.36-8.68,65.38-4.26,17.88-9.72,35.44-15.16,53-.48,1.56,1.86-.22,2.12-1,5.63-18.24,11.18-36.47,15.58-55,2.78-11.71,4.46-23.64,6.76-35.44C220.58,40.08,220.92,30.08,219.06,21.33Z" transform="translate(-12.21 -14.31)"/><path class="cls-4" d="M227.77,33.68c-.43-3.18-.77-7.67-3.17-10-.29-.28-1,.64-.86.95,1.89,3.51,1.84,8.52,2.27,12.46.6,5.35,0,10.91-.54,16.25-1.17,11.41-2.58,22.82-4.12,34.18-1.37,10.15-2.72,20.63-5.45,30.5-2.29,8.31-3.37,17.09-5.91,25.33a2.26,2.26,0,0,0-.76,1.47c0,.07,0,.15,0,.24s.07.44.34.48l.24,0c.93.14,1.71-1.18,1.94-1.88,2.84-8.53,4.55-18,6.34-26.77,2.2-10.79,4.25-21.56,5.72-32.5s2.66-21.77,3.78-32.66A77.55,77.55,0,0,0,227.77,33.68Z" transform="translate(-12.21 -14.31)"/><path class="cls-4" d="M233.15,27.28c-.24-.3-1,.62-.84.92,4.39,9.9,4.44,22.13,4.48,32.82,0,11.1-.34,22.27-1.1,33.34-.77,11.28-1.91,22.32-3.78,33.47-.86,5.09-2.23,10-3.29,15.09-.52,2.44-.85,4.91-1.48,7.33-.25,1-1.79,4-.19,2.65-1.06.9-1,2.78.55,1.46,1.78-1.52,1.62-4.68,2.16-6.77,1.42-5.56,2.52-11.37,3.65-17a268,268,0,0,0,4.23-33.76q1.31-18.61,1.33-37.31C238.86,49.84,239.37,35.35,233.15,27.28Z" transform="translate(-12.21 -14.31)"/><path class="cls-4" d="M240.05,31c-.16-.38-.91.45-.81.78,3.2,9.82,5.68,19.45,6.41,29.8.81,11.54,1,23.16.85,34.72-.2,11.18-.34,23-2.19,34-1.58,9.42-4.15,19-4.62,28.55-.06,1.21,2.09-.69,2.13-1.55.51-10.2,3.71-20.26,5-30.37,1.39-11.31,1.68-23,1.87-34.36C249,71.6,248.58,50.4,240.05,31Z" transform="translate(-12.21 -14.31)"/><path class="cls-4" d="M257.21,94.71c-.67-11.55-1.08-23.38-3-34.8-1-5.84-3.1-10.8-4.76-16.4-.91-3.08-2.31-7.5-4.94-9.44-.41-.31-1.33.84-1,1.21,2.36,2.44,2.91,6.94,4,10.1a101.53,101.53,0,0,1,4.26,14.52c2.18,11.91,2.4,24.36,3.17,36.43.72,11.45.11,22.73.1,34.15a209.41,209.41,0,0,1-2.53,32.39c-.49.62-.76,1.38-.35,1.62l.16.11c.27,1.07,2.08-1.1,2.15-1.57C258.23,140.78,258.52,117.19,257.21,94.71Z" transform="translate(-12.21 -14.31)"/><path class="cls-4" d="M266.27,135.57a290.5,290.5,0,0,0-.52-34.54c-1.74-21.4-2-46-16.07-63.51-.21-.27-.94.58-.79.86,5.18,9.6,9.46,19.55,11,30.41,1.61,11.25,2.84,22.37,3.83,33.7.94,10.72.63,21.73.55,32.49-.08,10.41.48,21.75-1,32.08-.21,1.48,1.65-.22,1.82-.91,1-4.23.56-9.19.66-13.54C265.91,146.93,266.05,141.25,266.27,135.57Z" transform="translate(-12.21 -14.31)"/><path class="cls-4" d="M275.23,109.08a297.72,297.72,0,0,0-5.43-35.27,129.63,129.63,0,0,0-4.41-16.6C263.56,52,260,49,257.15,44.51c-.22-.35-.92.45-.78.75,1.91,4.16,4.91,7.55,6.71,11.8,1.93,4.55,2.91,9.66,4,14.46a308.16,308.16,0,0,1,5.9,37,330.17,330.17,0,0,1,1.8,33.42c0,5-.55,10-.56,15,0,2.48-.09,4.91-.27,7.38,0,0,0,2.86-.13,4.36-.54.57-.95,1.41-.56,1.8l.28.28c.47.47,1.46-.7,1.63-1,1.1-2,.8-4.68.85-6.93.13-5.57.57-11.13.76-16.7C277.19,133.81,276.3,121.33,275.23,109.08Z" transform="translate(-12.21 -14.31)"/><path class="cls-4" d="M285.64,112.62c-1.33-9.8-3.58-19.26-5.45-28.94-2-10.3-6.4-18.45-11.64-27.39-.25-.44-1.13.55-.95.93,4,8.82,8.23,16.88,10.37,26.42,2.27,10.12,4.23,20.18,5.65,30.45,1.4,10.08,2.73,20.51,2.71,30.7,0,9.06-.38,18.21-.23,27.24,0,1.26,2-.74,2-1.48C289.63,151.31,288.26,131.73,285.64,112.62Z" transform="translate(-12.21 -14.31)"/><path class="cls-4" d="M298,154.71A231.61,231.61,0,0,0,296.57,129c-.82-7.38-1.19-14.73-2.45-22.07-1.52-8.78-5.18-16.69-7.4-25.24-.1-.38-.92.46-.85.83,1.42,7.53,4.23,14.66,5.65,22.2a193.42,193.42,0,0,1,2.71,26c.36,7.31,1,14.57,1.31,21.89.2,5.73.58,12.76-.94,18.37-.45,1.63,1.91-.23,2.15-1.07C298.1,165.27,298,159.52,298,154.71Z" transform="translate(-12.21 -14.31)"/><path class="cls-4" d="M57.88,104.16C43,105.33,34,118.71,28.59,131.5a115.52,115.52,0,0,0-6.92,21.64c-.58,2.82-1,12.72,4.27,12.39h0s0,0,.06,0h.07l.05,0h0a1.1,1.1,0,0,0,.34-.29l.05,0,.07-.11a1.63,1.63,0,0,0,.11-.17h0c.12-.23.16-.43,0-.51h0s0,0-.06,0c-2.54-.31-3.4-5.41-3.41-7.24a33.3,33.3,0,0,1,1.87-10.33c1.66-5.33,3.47-10.51,5.44-15.74,2.3-6.11,6.16-11.38,10.22-16.41a21.23,21.23,0,0,1,9.69-6.83c2.28-.8,4.53-.88,6.74-1.92C57.68,105.69,58.9,104.08,57.88,104.16Z" transform="translate(-12.21 -14.31)"/><path class="cls-4" d="M74.83,103.15c-9.69,2.07-15.18,12.76-19.25,21A149,149,0,0,0,47.83,143c-1.74,5.24-4.58,12.24-3.62,17.84.16.94,2.44-1.14,2.27-2.18-.73-4.49,1.77-10.56,3-14.83a104.31,104.31,0,0,1,6-15.23,113.75,113.75,0,0,1,7.27-13.71,32.61,32.61,0,0,1,7.23-8.3c1.44-1.12,3.1-1.52,4.59-2.46C74.77,104,75.38,103,74.83,103.15Z" transform="translate(-12.21 -14.31)"/><path class="cls-4" d="M90.31,105.3c-8.18,1.16-12.41,15.94-14.66,22.14-2.16,5.93-4,12-5.94,18a94.51,94.51,0,0,0-2.45,9.39c-.6,2.8-.36,6-1.21,8.74-.5,1.61,1.81-.06,2.09-.76,1.15-2.85,1.22-6.22,1.67-9.24.72-4.93,2.65-9.84,4.16-14.57,1.69-5.27,3.4-10.53,5.35-15.71,2.15-5.7,4.85-14,10.6-16.85C90.17,106.3,91,105.2,90.31,105.3Z" transform="translate(-12.21 -14.31)"/><path class="cls-4" d="M108.12,109.25c-2,1.18-3,2.87-4,4.92-2.88,5.63-5.4,11.52-7.87,17.35a144.91,144.91,0,0,0-9.91,34.74c-.24,1.62,1.81-.23,2-1,2.43-9.65,4.67-19.25,7.92-28.67,1.53-4.43,3.43-8.73,5.31-13s3.38-10.12,6.6-13.52C108.27,109.91,108.72,108.89,108.12,109.25Z" transform="translate(-12.21 -14.31)"/><path class="cls-4" d="M127.36,113.42l-.31-.23c-.5-.37-1.46.93-1.12,1.39.21.28-4.13,9.15-4.56,10.31-2.09,5.61-3.71,11.4-5.78,17-3.3,9-7.12,19.38-8,28.94-.15,1.44,2.37-.73,2.51-1.55a185.09,185.09,0,0,1,7.8-27.9c3.18-9.12,5.89-18.41,9.5-27.37C127.43,113.87,127.54,113.55,127.36,113.42Z" transform="translate(-12.21 -14.31)"/><path class="cls-4" d="M146.55,121.27c0-.38-.48-.07-.58,0-1.79,1.75-2.53,5-3.51,7.26-2.41,5.52-4.66,11-6.67,16.69-3.6,10.15-9.33,21.05-10,31.93,0,0,0,0,0,0,0,1.09,2.38-.41,2.49-1.82.81-10.46,6.24-20.74,9.62-30.57,1.71-5,3.42-9.91,5.47-14.73.94-2.2,1.52-4.6,2.53-6.76.4-.85.49-1.24.45-1.4a.7.7,0,0,0,.14-.3C146.52,121.48,146.54,121.38,146.55,121.27Z" transform="translate(-12.21 -14.31)"/><path class="cls-4" d="M162.12,126.84c-1.15,3.6-3.46,7-4.72,10.66a167.72,167.72,0,0,1-6.35,16c-4.38,9.4-9,19.71-10.6,30-.07.5,0,.88.6.82l.29,0c.79-.08,2.67-2.69,1.47-2.83.58.07,3.64-11.61,3.9-12.43a168.17,168.17,0,0,1,7.38-17.86,129.86,129.86,0,0,0,4.79-12.73c1.29-3.92,3.59-8.11,4.29-12.12C163.32,125.46,162.24,126.48,162.12,126.84Z" transform="translate(-12.21 -14.31)"/><g class="cls-5"><path class="cls-6" d="M153.55,185.7Z" transform="translate(-12.21 -14.31)"/><path class="cls-6" d="M174.56,134c-1.44,5.59-4.33,10.75-6.8,15.93-2.53,5.33-4.43,10.82-6.63,16.28-1.94,4.82-4,9.58-5.88,14.42a12.85,12.85,0,0,0-1,3.4,2.73,2.73,0,0,1-.71,1.66,10.19,10.19,0,0,1,1.09-.81c-.61.41-1.89,3-.3,2.25a3.8,3.8,0,0,0,2-3.07c.27-5.43,4-11.56,6.06-16.46,2.57-6,4.57-12.16,7.27-18.1,2.35-5.16,5.24-10.42,5.89-16.13C175.66,132.76,174.64,133.72,174.56,134Z" transform="translate(-12.21 -14.31)"/></g><path class="cls-4" d="M189.21,137.45c-4,10-9.26,19.6-13.32,29.64-1.74,4.28-3.39,8.6-4.88,13-1.32,3.9-1.88,8.69-3.63,12.38-.46,1,.47,1,1,.43,1.85-1.92,1.93-4.49,2.69-7,1.77-5.9,3.95-11.66,6.15-17.43,4-10.48,10.1-20.52,13-31.37C190.45,136.26,189.34,137.12,189.21,137.45Z" transform="translate(-12.21 -14.31)"/><path class="cls-4" d="M200.52,142c-1.83,10.53-6.91,20.8-10.93,30.64-1.93,4.72-3.74,9.49-5.47,14.28-.71,1.94-1.38,4-2.16,5.86a27.24,27.24,0,0,1-1.13,3.44c-.62.73-.73,2.6.58,1.5,1.94-1.63,2.3-4.35,3.22-6.61,2.29-5.62,4.14-11.44,6.36-17.1,2.42-6.14,4.89-12.25,7.21-18.43,1.61-4.3,3.35-9.57,3.31-14.19C201.51,140.78,200.57,141.71,200.52,142Z" transform="translate(-12.21 -14.31)"/><path class="cls-4" d="M212.37,148.36c-2,10-6.72,19.59-10.19,29.19-1.86,5.12-3.84,10.13-6.08,15.1-.85,1.87-1.44,3.75-2.21,5.65-.93,2.3-2.37,2.53,0,1.28-.79.42-2.29,3.27-.61,2.49s2.05-2.87,2.74-4.25c2.65-5.31,4.75-11.26,6.89-16.83,2.48-6.48,4.72-13.06,7.18-19.55,1.65-4.36,3.39-9,3.34-13.72C213.4,147.07,212.43,148.07,212.37,148.36Z" transform="translate(-12.21 -14.31)"/><path class="cls-4" d="M223.38,152.32c-.32-.08-.91.67-.66.93,1.48,1.56-.5,7.2-1,9.11a118.21,118.21,0,0,1-5.92,17c-2.2,5.16-4.26,10.38-6.47,15.54-1.53,3.6-3.73,7.2-4.4,11.1-.29,1.65,1.86-.23,2.06-1C208.13,200.46,230.18,153.9,223.38,152.32Z" transform="translate(-12.21 -14.31)"/><path class="cls-4" d="M236,156.2c-.14-.46-1.07.53-1,.93,1.93,9.36-3.15,19.67-5.7,28.43-1.42,4.86-2.6,9.78-3.91,14.68-.92,3.42-1.66,8.8-3.58,11.8-.86,1.33.45,1.46,1.21.5,1.75-2.22,2.07-5.34,2.8-8,1.67-6.09,2.95-12.47,5-18.45C233.76,177.3,238.77,165.55,236,156.2Z" transform="translate(-12.21 -14.31)"/><path class="cls-4" d="M247.09,159.3c-.37-.38-1.38.86-1.15,1.26,2.31,4,.51,10.34-.31,14.66a141.45,141.45,0,0,1-3.42,14c-1.3,4.4-2.68,8.73-3.8,13.18-.89,3.53-1.71,8.39-3.66,11.6a2.28,2.28,0,0,0-.42.89,2.58,2.58,0,0,1,0,.29c-.1,1.41,1.88-.47,2.07-.75,1.81-2.66,2.43-6.42,3.39-9.47,1.76-5.59,3.07-11.31,4.81-16.91a80.69,80.69,0,0,0,3.65-16.24C248.58,167.86,250.21,162.54,247.09,159.3Z" transform="translate(-12.21 -14.31)"/><path class="cls-4" d="M259.75,165.83c-.14-.47-1.06.53-1,.88,1,9.18-2.7,18.77-5.41,27.42-1.42,4.53-2.83,9.08-4.17,13.64-1.15,3.92-1.4,9.26-3.34,12.82-.94,1.73.83,1.36,1.5.21,1.78-3.07,2-7,2.88-10.41,1.31-5.09,2.91-10.12,4.45-15.16C257.26,186.6,262.48,175,259.75,165.83Z" transform="translate(-12.21 -14.31)"/><path class="cls-4" d="M269.37,167.26c-.2-.44-1,.51-.93.89,3.08,10.06-1.24,18.86-4.28,28.39-2.61,8.17-5.5,17.45-6.23,26-.1,1.16,1.94-.57,2-1.26A163.16,163.16,0,0,1,267.91,190C270.68,182.4,272.72,174.87,269.37,167.26Z" transform="translate(-12.21 -14.31)"/><path class="cls-4" d="M282.05,169.82h0c.28-.59-.16-.48-.52-.24s-1,.86-.71,1.23c3.07,3.79-.3,11.95-1.15,16.19-.95,4.74-2.18,9.43-3.3,14.13-1.92,8.1-4.45,17.53-4.17,25.91.05,1.42,2.13-.88,2.23-1.63,1.37-11.36,3.76-22.47,6.05-33.68C281.43,187.09,286.49,173.91,282.05,169.82Z" transform="translate(-12.21 -14.31)"/><path class="cls-4" d="M290.86,170.48c-.33-.29-1.07.67-.91,1,2.09,4.21.06,9.9-.81,14.28-1,5-2,10.06-2.95,15.09a157.76,157.76,0,0,0-3.2,25.06c0,1.29,2.13-.75,2.19-1.6a267.23,267.23,0,0,1,4.37-31c.95-4.92,1.87-9.86,2.76-14.79C292.8,175.81,293.12,172.45,290.86,170.48Z" transform="translate(-12.21 -14.31)"/><path class="cls-4" d="M300.26,170.46c-.25-.33-1.11.69-.94,1,2.2,4.57.69,10.12-.4,14.85s-2.17,9.36-3,14.12c-1.3,8-1.47,15.85-2.2,23.81a1.72,1.72,0,0,0-.31.82.88.88,0,0,0,.36.74c.86.82,2.16-1.57,2.23-2.15a84.85,84.85,0,0,0,.54-11.17c0-6.13,1.41-12.67,2.55-18.7C300.38,187.18,304.93,176.55,300.26,170.46Z" transform="translate(-12.21 -14.31)"/><path class="cls-4" d="M297.08,122.7a132.23,132.23,0,0,0-17.43-46.14c-12-20-30.11-37.75-51.51-47.87A52.32,52.32,0,0,1,241.19,49c7.26,21.92,3.34,44-1.12,66-1.14,5.65-2.17,11.73-5,16.82s-7.12,7-13,5.5c-17.85-4.45-35.23-11.15-52.68-17-18.09-6-36.35-11.77-55.09-15.35a221.27,221.27,0,0,0-29.67-3.8,55.41,55.41,0,0,0-12.93,1.18l1.2.06c16.37,1.08,32.88,4.81,48.7,9,30.62,8.14,59.79,20.69,88.9,33,16.13,6.79,31.77,14.26,48.46,19.63,7.91,2.54,17,5.21,25.34,5.46,3.49.1,6.95.11,10.43.35,1.12.08,2.25,0,3.39,0,.19-2.86.15-5.71.32-8.63.24-4.15.88-8.25.88-12.41A155.5,155.5,0,0,0,297.08,122.7Z" transform="translate(-12.21 -14.31)"/><path class="cls-4" d="M306.59,176.52c-1.33-5.06-6.76-4.9-11-3.38a98.45,98.45,0,0,1-17.08-.89c-16.69-2.66-32.73-8.24-48.31-14.64-1.23,5.57-4.42,10.87-7.56,15.51-2.85,4.23-6.48,8.51-11.29,10.58-10.77,4.63-22.86-1.76-32.9-5.51-17.71-6.63-35.3-13.17-53.81-17.24-9.43-2.07-18.91-3.91-28.39-5.72-8.7-1.68-17.37-3.61-26.12-4.95S52.48,148,43.66,148.65c-7,.51-16.35,1.41-21.69,6.66a18.41,18.41,0,0,0-5.41,11.18,24,24,0,0,0,5.94,9.1,41.23,41.23,0,0,0,8.4,6.33c.93.55,1.86,1.21,2.82,1.89a90.31,90.31,0,0,0,12.33,6.05c10.78,4.28,22.07,5.61,33.32,8.1,24.17,5.36,48.86,7.91,73.21,12.37,22.8,4.17,46.23,5,69.24,7.9,7.55.94,15,2.19,22.49,3.52-1.21-.35-2.41-.71-3.61-1.1-25.55-8.24-50.54-18-75.75-27.22-12.35-4.52-24.76-8.86-37.29-12.86-12.29-3.93-24.81-8.3-37.36-11.26a390.2,390.2,0,0,0-39-6.93c-6.66-.87-14.43-1.85-21,.17-5.79,1.79-6.92,7.69-4.35,11.95a22,22,0,0,0,6.6,7.07c-.2.18-.42.27-.57.17-4.25-2.67-9.71-6.07-11-11.26-.64-2.66,2.43-5.59,4-7.25,7.35-7.7,23.14-4.77,32.22-3.52,14.51,2,29.17,4.16,43.26,8.27,13,3.81,26.14,8,39.06,12.32,27.36,9.09,54,20,81.25,29.52,5.44,1.9,10.87,3.76,16.34,5.51C247.88,220,259,223.65,270.55,225c6.49.72,12.93,1.77,19.48,1.31,4.69-.34,12.36-2.11,13.79-7.44a.55.55,0,0,0,0-.34,43.64,43.64,0,0,0,1.83-7.75c1.21-6.05.89-12.2,1.12-18.31.07-1.76.24-4.27.2-6.89A24.64,24.64,0,0,0,306.59,176.52Z" transform="translate(-12.21 -14.31)"/><path class="cls-7" d="M72.86,88.87c14.82-26.66,42.87-45.08,70.89-55.47a160.32,160.32,0,0,1,73.19-9.18,86.74,86.74,0,0,0-17.37-3.83,136.75,136.75,0,0,0-93,23.47A236.15,236.15,0,0,0,68.19,76.49C59.44,85.8,50.36,96.05,43.4,107.26c7.3-3.36,15.83-4.8,23.83-4.91A65.79,65.79,0,0,1,72.86,88.87Z" transform="translate(-12.21 -14.31)"/><path class="cls-7" d="M16,162.35c1.76-14.65,11.09-28.12,21.16-38.48,9.26-9.54,22-13.13,35-14a161.32,161.32,0,0,1,34.06,1.84c-4.73-1.08-9.49-2-14.26-2.82-15.83-2.6-32.56-5-47.91,1.08-.44.17-.87.36-1.29.55a16.46,16.46,0,0,0-6.69,4.24c-10.55,8.81-15.25,24.39-19.32,37a23.5,23.5,0,0,0-.85,12.62A16.11,16.11,0,0,1,16,162.35Z" transform="translate(-12.21 -14.31)"/></g></g></svg>